<svg xmlns="http://www.w3.org/2000/svg" viewBox="0 0 512 512" width="512" height="512">
  <rect width="512" height="512" rx="112" fill="#2E5D34"/>
  <!-- testa mucca stilizzata -->
  <g transform="translate(256 268)">
    <!-- orecchie -->
    <ellipse cx="-118" cy="-30" rx="46" ry="30" fill="#f7f5ef" transform="rotate(-25 -118 -30)"/>
    <ellipse cx="118" cy="-30" rx="46" ry="30" fill="#f7f5ef" transform="rotate(25 118 -30)"/>
    <!-- corna -->
    <path d="M-92 -96 q-30 -58 -78 -54 q40 18 56 70 z" fill="#e9e2cf"/>
    <path d="M92 -96 q30 -58 78 -54 q-40 18 -56 70 z" fill="#e9e2cf"/>
    <!-- muso -->
    <ellipse cx="0" cy="6" rx="118" ry="104" fill="#f7f5ef"/>
    <!-- macchia -->
    <path d="M-70 -70 q60 -30 96 22 q-40 30 -96 6 z" fill="#cdbf9f"/>
    <!-- occhi -->
    <circle cx="-44" cy="-8" r="13" fill="#1b2a1d"/>
    <circle cx="44" cy="-8" r="13" fill="#1b2a1d"/>
    <!-- museruola -->
    <ellipse cx="0" cy="64" rx="74" ry="50" fill="#e9b8b0"/>
    <circle cx="-28" cy="62" r="11" fill="#7d4a44"/>
    <circle cx="28" cy="62" r="11" fill="#7d4a44"/>
  </g>
</svg>
