<svg width="64" height="64" viewBox="0 0 512 512" xmlns="http://www.w3.org/2000/svg">
  <defs><clipPath id="r"><rect width="512" height="512" rx="96"/></clipPath></defs>
  <g clip-path="url(#r)">
    <rect width="256" height="512" fill="#16121f"/>
    <rect x="256" width="256" height="512" fill="#c8102e"/>
    <g fill="none" stroke="#F4F0E8" stroke-width="44" stroke-linecap="round">
      <path d="M256,396 C226,330 178,258 174,178 C172,146 186,120 214,110"/>
      <path d="M256,396 C286,330 334,258 338,178 C340,146 326,120 298,110"/>
      <path d="M174,178 C160,148 164,120 186,102"/>
      <path d="M338,178 C352,148 348,120 326,102"/>
    </g>
    <circle cx="256" cy="404" r="26" fill="#F4F0E8"/>
    <rect y="466" width="512" height="18" fill="#C9A227"/>
  </g>
</svg>
